# xmcd
#
# Track frame offsets:
#	150
#	19541
#	39318
#	55322
#	72475
#	93074
#	105183
#	119131
#	142397
#	157647
#	174984
#	188727
#	209843
#	229868
#	250411
#	266164
#	285813
#	306706
#	336131
#
# Disc length: 4673
#
# Revision: 1
# Processed by: cddbd v1.5.1PL0 Copyright (c) Steve Scherf et al.
# Submitted via: CDex 1.51
# Normalized: r0:TDELIM( - )
#
DISCID=14123f13
DTITLE=Various Artist - #1's - 38 Of The Greatest No. 1 Singles Of All Time
DYEAR=1900
DGENRE=
TTITLE0=Queen - I Want To Break Free
TTITLE1=Robbie Williams - Feel
TTITLE2=Elvis vs. JXL - A Little Less Conversation
TTITLE3=Anastacia - I'm Outta Love
TTITLE4=The Black Eyed Peas - Where Is The Love?
TTITLE5=Soft Cell - Tainted Love
TTITLE6=Norah Jones - Don't Know Why
TTITLE7=Sinead O'Connor - Nothing Compares 2 U
TTITLE8=Alex Lloyd - Amazing
TTITLE9=Kylie Minogue - Can't Get You Out Of My Head
TTITLE10=INXS - Need You Tonight
TTITLE11=Duran Duran - Ordinary World
TTITLE12=Robert Palmer - Addicted To Love
TTITLE13=Ricky Martin - The Cup Of Life
TTITLE14=Bee Gees - Night Fever
TTITLE15=Simple Minds - Don't You (Forget About Me)
TTITLE16=Savage Garden - Truly, Madly, Deeply
TTITLE17=Tears For Fears - Shout
TTITLE18=Pink Floyd - Another Brick In The Wall (Part 2)
EXTD=
EXTT0=
EXTT1=
EXTT2=
EXTT3=
EXTT4=
EXTT5=
EXTT6=
EXTT7=
EXTT8=
EXTT9=
EXTT10=
EXTT11=
EXTT12=
EXTT13=
EXTT14=
EXTT15=
EXTT16=
EXTT17=
EXTT18=
PLAYORDER=
